<svg width="21" height="20" viewBox="0 0 21 20" fill="none" xmlns="http://www.w3.org/2000/svg">
<path fill-rule="evenodd" clip-rule="evenodd" d="M3.62109 4.0625H2.37109C2.02609 4.0625 1.74609 4.3425 1.74609 4.6875C1.74609 5.0325 2.02609 5.3125 2.37109 5.3125H3.62109V5.46875C3.62109 5.84156 3.76922 6.19938 4.03297 6.46313C4.29672 6.72688 4.65453 6.875 5.02734 6.875H5.65234C6.02516 6.875 6.38297 6.72688 6.64672 6.46313C6.91047 6.19938 7.05859 5.84156 7.05859 5.46875V5.3125H18.6211C18.9661 5.3125 19.2461 5.0325 19.2461 4.6875C19.2461 4.3425 18.9661 4.0625 18.6211 4.0625H7.05859V3.90625C7.05859 3.53344 6.91047 3.17562 6.64672 2.91187C6.38297 2.64812 6.02516 2.5 5.65234 2.5C5.44922 2.5 5.23047 2.5 5.02734 2.5C4.65453 2.5 4.29672 2.64812 4.03297 2.91187C3.76922 3.17562 3.62109 3.53344 3.62109 3.90625V4.0625Z" fill="#2F3789"/>
<path fill-rule="evenodd" clip-rule="evenodd" d="M13.9336 9.37563H2.37109C2.02609 9.37563 1.74609 9.65563 1.74609 10.0006C1.74609 10.3456 2.02609 10.6256 2.37109 10.6256H13.9336V10.7812C13.9336 11.1541 14.0817 11.5119 14.3455 11.7756C14.6092 12.0394 14.967 12.1875 15.3398 12.1875H15.9648C16.3377 12.1875 16.6955 12.0394 16.9592 11.7756C17.223 11.5119 17.3711 11.1541 17.3711 10.7812V10.6256H18.6211C18.9661 10.6256 19.2461 10.3456 19.2461 10.0006C19.2461 9.65563 18.9661 9.37563 18.6211 9.37563H17.3711V9.21875C17.3711 8.84563 17.223 8.48812 16.9592 8.22437C16.6955 7.96062 16.3377 7.8125 15.9648 7.8125C15.7617 7.8125 15.543 7.8125 15.3398 7.8125C14.967 7.8125 14.6092 7.96062 14.3455 8.22437C14.0817 8.48812 13.9336 8.84563 13.9336 9.21875V9.37563Z" fill="#2F3789"/>
<path fill-rule="evenodd" clip-rule="evenodd" d="M7.05859 14.6875H2.37109C2.02609 14.6875 1.74609 14.9675 1.74609 15.3125C1.74609 15.6575 2.02609 15.9375 2.37109 15.9375H7.05859V16.0938C7.05859 16.4666 7.20672 16.8244 7.47047 17.0881C7.73422 17.3519 8.09203 17.5 8.46484 17.5H9.08984C9.46266 17.5 9.82047 17.3519 10.0842 17.0881C10.348 16.8244 10.4961 16.4666 10.4961 16.0938V15.9375H18.6211C18.9661 15.9375 19.2461 15.6575 19.2461 15.3125C19.2461 14.9675 18.9661 14.6875 18.6211 14.6875H10.4961V14.5312C10.4961 14.1584 10.348 13.8006 10.0842 13.5369C9.82047 13.2731 9.46266 13.125 9.08984 13.125C8.88672 13.125 8.66797 13.125 8.46484 13.125C8.09203 13.125 7.73422 13.2731 7.47047 13.5369C7.20672 13.8006 7.05859 14.1584 7.05859 14.5312V14.6875Z" fill="#2F3789"/>
</svg>
