<svg width="66" height="66" viewBox="0 0 66 66" fill="none" xmlns="http://www.w3.org/2000/svg">
<path d="M44.361 28.0766H6.3871C2.86488 28.0766 0 30.9415 0 34.4637V59.6129C0 63.1351 2.86488 66 6.3871 66H44.361C47.8833 66 50.7481 63.1351 50.7481 59.6129V34.4637C50.7481 30.9415 47.8833 28.0766 44.361 28.0766ZM20.2369 46.1844C20.2369 47.3602 19.2837 48.3135 18.1078 48.3135H9.93553C8.75964 48.3135 7.8065 47.3602 7.8065 46.1844V38.012C7.8065 36.8363 8.75964 35.883 9.93553 35.883H18.1078C19.2837 35.883 20.2369 36.8363 20.2369 38.012V46.1844ZM29.6419 51.6793C28.8105 50.8478 28.8103 49.4999 29.6419 48.6685C30.502 47.8084 30.502 46.4088 29.6419 45.5485C28.8103 44.717 28.8105 43.3691 29.6419 42.5377C30.4734 41.7064 31.8214 41.7063 32.6527 42.5377C35.1729 45.058 35.1729 49.159 32.6527 51.6793C31.8212 52.5107 30.4732 52.5107 29.6419 51.6793ZM36.224 57.5718C35.3133 58.315 33.972 58.1794 33.2285 57.268C32.4852 56.3569 32.6213 55.0158 33.5323 54.2725C38.0884 50.5552 38.0538 43.5957 33.4732 39.9206C32.556 39.1848 32.4089 37.8447 33.1446 36.9275C33.8804 36.0105 35.2205 35.8632 36.1375 36.5991C42.8363 41.9732 42.8683 52.1526 36.224 57.5718ZM59.0806 0H30.6048C26.7834 0 23.6855 3.09788 23.6855 6.91936V22.3548C23.6855 23.5307 24.6386 24.4839 25.8145 24.4839H28.7419C29.9178 24.4839 30.871 23.5307 30.871 22.3548V20.2258C30.871 17.2863 33.254 14.9032 36.1936 14.9032H53.4919C56.4315 14.9032 58.8145 17.2863 58.8145 20.2258V31.5363C58.8145 33.4432 57.807 35.1188 56.2961 36.0586C55.6709 36.4476 55.2896 37.1303 55.2896 37.8666C55.2896 64.1835 55.3469 62.4447 55.1483 63.4582C54.8904 64.7749 55.8941 66 57.2358 66H59.0806C62.9021 66 66 62.9021 66 59.0806V6.91936C66 3.09788 62.9021 0 59.0806 0V0ZM54.4234 11.7097H35.2621C34.0862 11.7097 33.1331 10.7564 33.1331 9.58065C33.1331 8.40489 34.0862 7.45161 35.2621 7.45161H54.4234C55.5993 7.45161 56.5524 8.40489 56.5524 9.58065C56.5524 10.7564 55.5993 11.7097 54.4234 11.7097Z" fill="#B0B3D6"/>
</svg>
